<svg width="42" height="42" viewBox="0 0 42 42" fill="none" xmlns="http://www.w3.org/2000/svg">
<g opacity="0.6">
<circle cx="21" cy="21.0002" r="20.75" fill="#F4F7FF" stroke="#E7E7E7" stroke-width="0.5"/>
<g clip-path="url(#clip0_1_135)">
<path d="M29.6969 16.7721H28.6656L26.3281 10.8253C26.1906 10.5159 25.8469 10.3784 25.5375 10.4815C25.2282 10.619 25.0906 10.9628 25.1938 11.2721L27.3594 16.8065H14.6063L16.7719 11.2721C16.9094 10.9628 16.7375 10.619 16.4281 10.4815C16.1188 10.344 15.775 10.5159 15.6375 10.8253L13.3 16.7721H12.2688C11.7531 16.7721 11.3063 17.1846 11.3063 17.7346V20.6565C11.3063 21.1721 11.7188 21.619 12.2688 21.619H12.3031L13.1969 29.4565C13.3344 30.6596 14.3656 31.5878 15.6031 31.5878H26.3281C27.5656 31.5878 28.5969 30.6596 28.7344 29.4565L29.6281 21.619H29.6625C30.1782 21.619 30.625 21.2065 30.625 20.6565V17.7346C30.6594 17.219 30.2469 16.7721 29.6969 16.7721ZM12.5438 17.9753H29.4563V20.3815H12.5438V17.9753ZM27.5656 29.2846C27.4969 29.9034 26.9813 30.3503 26.3625 30.3503H15.6375C15.0188 30.3503 14.5031 29.9034 14.4344 29.2846L13.5406 21.5846H28.4594L27.5656 29.2846Z" fill="#1E232D"/>
<path d="M17.3907 27.4627C17.7344 27.4627 18.0094 27.1877 18.0094 26.844V24.1971C18.0094 23.8534 17.7344 23.5784 17.3907 23.5784C17.0469 23.5784 16.7719 23.8534 16.7719 24.1971V26.844C16.7719 27.1877 17.0469 27.4627 17.3907 27.4627Z" fill="#1E232D"/>
<path d="M24.6094 27.4627C24.9532 27.4627 25.2282 27.1877 25.2282 26.844V24.1971C25.2282 23.8534 24.9532 23.5784 24.6094 23.5784C24.2657 23.5784 23.9907 23.8534 23.9907 24.1971V26.844C24.025 27.1877 24.3 27.4627 24.6094 27.4627Z" fill="#1E232D"/>
</g>
</g>
<defs>
<clipPath id="clip0_1_135">
<rect width="22" height="22" fill="white" transform="translate(10 10.0002)"/>
</clipPath>
</defs>
</svg>
