<svg width="28" height="29" viewBox="0 0 28 29" fill="none" xmlns="http://www.w3.org/2000/svg">
<path d="M16.2941 5.38389C18.9015 6.31357 20.968 8.39827 21.8896 11.0286M17.7708 1C21.7243 2.39132 24.8561 5.55063 26.2353 9.53895M12.5945 16.3036C10.9154 14.6097 9.58948 12.6944 8.61687 10.6508C8.53321 10.475 8.49138 10.3871 8.45924 10.2759C8.34504 9.88071 8.42707 9.3954 8.66465 9.06069C8.7315 8.9665 8.81138 8.88592 8.97112 8.72478C9.45967 8.23193 9.70395 7.9855 9.86366 7.73771C10.4659 6.80321 10.4659 5.59849 9.86366 4.664C9.70395 4.4162 9.45968 4.16977 8.97112 3.67692L8.6988 3.40221C7.95614 2.65302 7.58481 2.27843 7.18601 2.07495C6.39288 1.67026 5.45623 1.67026 4.66309 2.07495C4.26429 2.27843 3.89296 2.65303 3.1503 3.40221L2.93002 3.62443C2.1899 4.37106 1.81984 4.74437 1.53721 5.25191C1.2236 5.81511 0.998106 6.68983 1.00001 7.3358C1.00173 7.91794 1.11367 8.31579 1.33755 9.11151C2.5407 13.3878 4.81081 17.4229 8.14786 20.7893C11.4849 24.1557 15.4849 26.4458 19.7239 27.6595C20.5127 27.8853 20.9071 27.9983 21.4841 28C22.1245 28.0019 22.9916 27.7744 23.5498 27.4581C24.053 27.1729 24.423 26.7996 25.1631 26.053L25.3834 25.8308C26.1261 25.0816 26.4974 24.707 26.6991 24.3047C27.1003 23.5046 27.1003 22.5597 26.6991 21.7596C26.4974 21.3573 26.1261 20.9827 25.3834 20.2335L25.1111 19.9588C24.6226 19.466 24.3783 19.2195 24.1326 19.0584C23.2063 18.4508 22.0121 18.4508 21.0857 19.0584C20.8401 19.2195 20.5958 19.466 20.1072 19.9588C19.9475 20.12 19.8676 20.2005 19.7743 20.268C19.4425 20.5076 18.9614 20.5904 18.5696 20.4752C18.4594 20.4428 18.3722 20.4006 18.198 20.3162C16.1722 19.335 14.2736 17.9975 12.5945 16.3036Z" stroke="white" stroke-linecap="round"/>
</svg>
